# xmcd
#
# Track frame offsets:
# 182
# 13957
# 33245
# 50940
# 67052
# 82772
# 105567
# 117117
# 133177
# 148532
# 164792
#
# Disc length: 2375 seconds
#
#
# Revision: 0
# Processed by: cddbd v1.5.1PL0 Copyright (c) Steve Scherf et al.
# Submitted via: FreeRIP 2.93 
#
DISCID=9e09450b
DTITLE=Sun Joe - Out on the road
DYEAR=1991
DGENRE=Country
TTITLE0=Wondering what the girls do (One the boys night out)
TTITLE1=Honky Tonk hangin' man
TTITLE2=Savannah is blue
TTITLE3=Out on the road
TTITLE4=Breakin' it
TTITLE5=Up on the hill
TTITLE6=Operator operator
TTITLE7=As if I didn't know
TTITLE8=The day the president died
TTITLE9=Hittin' that ol' highway
TTITLE10=Love without walls
EXTD=
EXTT0=
EXTT1=
EXTT2=
EXTT3=
EXTT4=
EXTT5=
EXTT6=
EXTT7=
EXTT8=
EXTT9=
EXTT10=
PLAYORDER=
